<?xml version="1.0" encoding="UTF-8"?>
<svg width="24px" height="24px" viewBox="0 0 24 24" version="1.1" xmlns="http://www.w3.org/2000/svg" xmlns:xlink="http://www.w3.org/1999/xlink">
    <g id="云资源目录" stroke="none" stroke-width="1" fill="none" fill-rule="evenodd">
        <g transform="translate(-1330.000000, -16.000000)" id="-mockplus-">
            <g id="编组-5" transform="translate(1330.000000, 16.000000)">
                <g id="编组" transform="translate(1.500000, 1.500000)">
                    <rect id="矩形" x="0" y="0" width="21" height="21"></rect>
                    <path d="M10.5,0 C16.2989899,0 21,4.70101013 21,10.5 C21,16.2989899 16.2989899,21 10.5,21 C4.70101013,21 0,16.2989899 0,10.5 C0,4.70101013 4.70101013,0 10.5,0 Z M10.5,10.5 C7.39072342,10.5 4.67601166,12.1893328 3.2242257,14.7007869 C4.67673723,17.2111187 7.39113894,18.9 10.5,18.9 C13.6092766,18.9 16.3239883,17.2106672 17.7757743,14.6992131 C16.3232628,12.1888813 13.6088611,10.5 10.5,10.5 Z M10.5,2.1 C8.47035354,2.1 6.825,3.74535354 6.825,5.775 C6.825,7.80464646 8.47035354,9.45 10.5,9.45 C12.5296465,9.45 14.175,7.80464646 14.175,5.775 C14.175,3.74535354 12.5296465,2.1 10.5,2.1 Z" id="形状结合" fill="#FFFFFF"></path>
                </g>
            </g>
        </g>
    </g>
</svg>